<svg xmlns="http://www.w3.org/2000/svg" version="1.1" xmlns:xlink="http://www.w3.org/1999/xlink" xmlns:svgjs="http://svgjs.dev/svgjs" width="2000" height="696" viewBox="0 0 2000 696"><g transform="matrix(1,0,0,1,-1.2121212121212466,-1.0055913215368832)"><svg viewBox="0 0 396 138" data-background-color="#ffffff" preserveAspectRatio="xMidYMid meet" height="696" width="2000" xmlns="http://www.w3.org/2000/svg" xmlns:xlink="http://www.w3.org/1999/xlink"><g id="tight-bounds" transform="matrix(1,0,0,1,0.2400000000000091,0.19938448616679239)"><svg viewBox="0 0 395.52 137.60123102766642" height="137.60123102766642" width="395.52"><g><svg viewBox="0 0 395.52 137.60123102766642" height="137.60123102766642" width="395.52"><g><svg viewBox="0 0 395.52 137.60123102766642" height="137.60123102766642" width="395.52"><g><svg viewBox="0 0 395.52 137.60123102766642" height="137.60123102766642" width="395.52"><g transform="matrix(1,0,0,1,0,85.04308106270497)"><svg viewBox="0 0 395.52 52.55814996496145" height="52.55814996496145" width="395.52"><g id="textblocktransform"><svg viewBox="0 0 395.52 52.55814996496145" height="52.55814996496145" width="395.52" id="textblock"><g><svg viewBox="0 0 395.52 52.55814996496145" height="52.55814996496145" width="395.52"><g transform="matrix(1,0,0,1,0,0)"><svg width="395.52" viewBox="3.25 -36.55 278.69 37.04" height="52.55814996496145" data-palette-color="#4b91f1"><path d="M31.25-10.5L31.25-10.5Q31.25-8.33 30.42-6.42 29.59-4.52 28.16-3.09 26.73-1.66 24.83-0.83 22.92 0 20.75 0L20.75 0 3.25 0 3.25-35.01 20.75-35.01Q22.92-35.01 24.83-34.18 26.73-33.35 28.16-31.92 29.59-30.49 30.42-28.59 31.25-26.68 31.25-24.51L31.25-24.51Q31.25-23.54 30.98-22.51 30.71-21.48 30.22-20.53 29.74-19.58 29.05-18.8 28.37-18.02 27.54-17.5L27.54-17.5Q28.39-17.04 29.08-16.25 29.76-15.45 30.25-14.5 30.74-13.55 30.99-12.51 31.25-11.47 31.25-10.5ZM10.25-13.99L10.25-7.01 20.75-7.01Q21.48-7.01 22.12-7.28 22.75-7.54 23.23-8.02 23.71-8.5 23.97-9.13 24.24-9.77 24.24-10.5L24.24-10.5Q24.24-11.23 23.97-11.87 23.71-12.5 23.23-12.98 22.75-13.45 22.12-13.72 21.48-13.99 20.75-13.99L20.75-13.99 10.25-13.99ZM10.25-28L10.25-21 20.75-21Q21.48-21 22.12-21.26 22.75-21.53 23.23-22.01 23.71-22.49 23.97-23.13 24.24-23.78 24.24-24.51L24.24-24.51Q24.24-25.24 23.97-25.88 23.71-26.51 23.23-26.99 22.75-27.47 22.12-27.73 21.48-28 20.75-28L20.75-28 10.25-28ZM61.11-13.31L61.11-13.31Q61.11-10.38 60.06-7.85 59.01-5.32 57.2-3.48 55.39-1.64 52.96-0.57 50.53 0.49 47.75 0.49L47.75 0.49Q44.99 0.49 42.56-0.57 40.13-1.64 38.32-3.48 36.5-5.32 35.45-7.85 34.4-10.38 34.4-13.31L34.4-13.31Q34.4-16.28 35.45-18.82 36.5-21.36 38.32-23.21 40.13-25.05 42.56-26.1 44.99-27.15 47.75-27.15L47.75-27.15Q50.53-27.15 52.96-26.16 55.39-25.17 57.2-23.35 59.01-21.53 60.06-18.98 61.11-16.43 61.11-13.31ZM54.39-13.31L54.39-13.31Q54.39-14.92 53.87-16.22 53.34-17.53 52.44-18.47 51.54-19.41 50.33-19.91 49.12-20.41 47.75-20.41L47.75-20.41Q46.38-20.41 45.18-19.91 43.97-19.41 43.08-18.47 42.19-17.53 41.67-16.22 41.16-14.92 41.16-13.31L41.16-13.31Q41.16-11.79 41.67-10.5 42.19-9.2 43.08-8.25 43.97-7.3 45.18-6.75 46.38-6.2 47.75-6.2L47.75-6.2Q49.12-6.2 50.33-6.71 51.54-7.23 52.44-8.15 53.34-9.08 53.87-10.4 54.39-11.72 54.39-13.31ZM90.06-13.31L90.06-13.31Q90.06-10.38 89.01-7.85 87.96-5.32 86.15-3.48 84.35-1.64 81.92-0.57 79.49 0.49 76.7 0.49L76.7 0.49Q73.95 0.49 71.52-0.57 69.09-1.64 67.27-3.48 65.45-5.32 64.4-7.85 63.35-10.38 63.35-13.31L63.35-13.31Q63.35-16.28 64.4-18.82 65.45-21.36 67.27-23.21 69.09-25.05 71.52-26.1 73.95-27.15 76.7-27.15L76.7-27.15Q79.49-27.15 81.92-26.16 84.35-25.17 86.15-23.35 87.96-21.53 89.01-18.98 90.06-16.43 90.06-13.31ZM83.34-13.31L83.34-13.31Q83.34-14.92 82.82-16.22 82.29-17.53 81.39-18.47 80.49-19.41 79.28-19.91 78.07-20.41 76.7-20.41L76.7-20.41Q75.34-20.41 74.13-19.91 72.92-19.41 72.03-18.47 71.14-17.53 70.62-16.22 70.11-14.92 70.11-13.31L70.11-13.31Q70.11-11.79 70.62-10.5 71.14-9.2 72.03-8.25 72.92-7.3 74.13-6.75 75.34-6.2 76.7-6.2L76.7-6.2Q78.07-6.2 79.28-6.71 80.49-7.23 81.39-8.15 82.29-9.08 82.82-10.4 83.34-11.72 83.34-13.31ZM100.46-3.34L100.46 0 93.74 0 93.74-36.55 100.46-36.55 100.46-13.5 110.39-26.1 118.06-26.1 109.39-15.21 118.06 0 110.39 0 105.1-9.5 100.46-3.34ZM137.15-10.96L137.15 0 130.17 0 130.17-10.96Q127.85-11.55 125.91-12.84 123.96-14.14 122.57-15.93 121.18-17.72 120.41-19.91 119.64-22.09 119.64-24.51L119.64-24.51 119.64-35.01 126.65-35.01 126.65-24.51Q126.65-23.07 127.2-21.79 127.75-20.51 128.7-19.56 129.65-18.6 130.93-18.05 132.22-17.5 133.66-17.5L133.66-17.5Q135.1-17.5 136.38-18.05 137.66-18.6 138.61-19.56 139.57-20.51 140.11-21.79 140.66-23.07 140.66-24.51L140.66-24.51 140.66-35.01 147.65-35.01 147.65-24.51Q147.65-22.09 146.88-19.91 146.11-17.72 144.72-15.93 143.32-14.14 141.4-12.84 139.47-11.55 137.15-10.96L137.15-10.96ZM175.96-13.31L175.96-13.31Q175.96-10.38 174.91-7.85 173.86-5.32 172.06-3.48 170.25-1.64 167.82-0.57 165.39 0.49 162.61 0.49L162.61 0.49Q159.85 0.49 157.42-0.57 154.99-1.64 153.17-3.48 151.35-5.32 150.3-7.85 149.26-10.38 149.26-13.31L149.26-13.31Q149.26-16.28 150.3-18.82 151.35-21.36 153.17-23.21 154.99-25.05 157.42-26.1 159.85-27.15 162.61-27.15L162.61-27.15Q165.39-27.15 167.82-26.16 170.25-25.17 172.06-23.35 173.86-21.53 174.91-18.98 175.96-16.43 175.96-13.31ZM169.25-13.31L169.25-13.31Q169.25-14.92 168.73-16.22 168.2-17.53 167.3-18.47 166.39-19.41 165.19-19.91 163.98-20.41 162.61-20.41L162.61-20.41Q161.24-20.41 160.03-19.91 158.83-19.41 157.93-18.47 157.04-17.53 156.53-16.22 156.02-14.92 156.02-13.31L156.02-13.31Q156.02-11.79 156.53-10.5 157.04-9.2 157.93-8.25 158.83-7.3 160.03-6.75 161.24-6.2 162.61-6.2L162.61-6.2Q163.98-6.2 165.19-6.71 166.39-7.23 167.3-8.15 168.2-9.08 168.73-10.4 169.25-11.72 169.25-13.31ZM186.31-14.94L186.31 0 179.65 0 179.65-26.15 181.26-26.15 183.46-23.61Q185.07-25.07 187.11-25.87 189.15-26.66 191.37-26.66L191.37-26.66Q193.76-26.66 195.88-25.74 198.01-24.83 199.59-23.23 201.18-21.63 202.1-19.49 203.01-17.36 203.01-14.94L203.01-14.94 203.01 0 196.35 0 196.35-14.94Q196.35-15.97 195.96-16.88 195.57-17.8 194.88-18.48 194.2-19.17 193.3-19.56 192.39-19.95 191.37-19.95L191.37-19.95Q190.32-19.95 189.39-19.56 188.46-19.17 187.78-18.48 187.09-17.8 186.7-16.88 186.31-15.97 186.31-14.94L186.31-14.94ZM233.01-36.55L233.01 0 231.4 0 228.82-3.59Q227.86-2.73 226.8-1.99 225.74-1.25 224.57-0.7 223.4-0.15 222.16 0.17 220.93 0.49 219.66 0.49L219.66 0.49Q216.9 0.49 214.47-0.55 212.04-1.59 210.22-3.43 208.41-5.27 207.36-7.8 206.31-10.33 206.31-13.31L206.31-13.31Q206.31-16.26 207.36-18.8 208.41-21.34 210.22-23.19 212.04-25.05 214.47-26.1 216.9-27.15 219.66-27.15L219.66-27.15Q220.54-27.15 221.48-27 222.42-26.86 223.31-26.53 224.2-26.2 224.98-25.66 225.76-25.12 226.3-24.34L226.3-24.34 226.3-36.55 233.01-36.55ZM226.3-13.31L226.3-13.31Q226.3-14.67 225.78-15.95 225.25-17.24 224.35-18.23 223.44-19.21 222.24-19.81 221.03-20.41 219.66-20.41L219.66-20.41Q218.29-20.41 217.08-19.92 215.88-19.43 214.98-18.52 214.09-17.6 213.58-16.28 213.07-14.97 213.07-13.31L213.07-13.31Q213.07-11.87 213.58-10.57 214.09-9.28 214.98-8.3 215.88-7.32 217.08-6.76 218.29-6.2 219.66-6.2L219.66-6.2Q221.03-6.2 222.24-6.8 223.44-7.4 224.35-8.39 225.25-9.38 225.78-10.66 226.3-11.94 226.3-13.31ZM260.99-21.46L248.49-6.4Q248.88-6.27 249.27-6.24 249.66-6.2 250.05-6.2L250.05-6.2Q251.03-6.2 251.93-6.47 252.84-6.74 253.63-7.24 254.42-7.74 255.05-8.46 255.67-9.18 256.06-10.06L256.06-10.06 260.94-5.15Q260.01-3.83 258.81-2.78 257.6-1.73 256.19-1 254.79-0.27 253.24 0.11 251.69 0.49 250.05 0.49L250.05 0.49Q247.29 0.49 244.87-0.54 242.44-1.56 240.62-3.39 238.8-5.22 237.75-7.75 236.7-10.28 236.7-13.31L236.7-13.31Q236.7-16.41 237.75-18.97 238.8-21.53 240.62-23.34 242.44-25.15 244.87-26.15 247.29-27.15 250.05-27.15L250.05-27.15Q251.69-27.15 253.25-26.76 254.81-26.37 256.22-25.63 257.62-24.9 258.84-23.84 260.06-22.78 260.99-21.46L260.99-21.46ZM244.15-9.84L251.91-20.14Q251.44-20.31 250.99-20.36 250.54-20.41 250.05-20.41L250.05-20.41Q248.69-20.41 247.48-19.91 246.27-19.41 245.38-18.48 244.49-17.55 243.97-16.25 243.46-14.94 243.46-13.31L243.46-13.31Q243.46-12.94 243.5-12.48 243.53-12.01 243.62-11.54 243.71-11.06 243.83-10.62 243.95-10.18 244.15-9.84L244.15-9.84ZM271-14.4L271 0 264.33 0 264.33-26.15 265.94-26.15 268.14-23.05Q269.75-24.51 271.8-25.31 273.85-26.1 276.05-26.1L276.05-26.1 281.94-26.1 281.94-19.46 276.05-19.46Q275-19.46 274.07-19.07 273.15-18.68 272.46-17.99 271.78-17.31 271.39-16.38 271-15.45 271-14.4L271-14.4Z" opacity="1" transform="matrix(1,0,0,1,0,0)" fill="#4b91f1" class="wordmark-text-0" data-fill-palette-color="primary" id="text-0"></path></svg></g></svg></g></svg></g></svg></g><g transform="matrix(1,0,0,1,154.13044049712477,0)"><svg viewBox="0 0 87.25911900575046 72.63536325157673" height="72.63536325157673" width="87.25911900575046"><g><svg version="1.1" xmlns="http://www.w3.org/2000/svg" xmlns:xlink="http://www.w3.org/1999/xlink" x="0" y="0" viewBox="0.23999999999999666 0 100.00000000000001 83.241" enable-background="new 0.24 12.616 100 70.625" xml:space="preserve" width="87.25911900575046" height="72.63536325157673" class="icon-icon-0" data-fill-palette-color="accent" id="icon-0"><rect x="41.932" y="19.744" width="39.071" height="6.451" fill="#4b91f1" data-fill-palette-color="accent"></rect><polyline points="41.811,20.405 38.457,20.405 43.969,12.616 78.844,12.616 84.479,20.405 80.882,20.405 " fill="#4b91f1" data-fill-palette-color="accent"></polyline><line fill="none" x1="86.621" y1="34.698" x2="91.972" y2="34.698"></line><rect x="86.621" y="32.9" width="5.351" height="3.596" fill="#4b91f1" data-fill-palette-color="accent"></rect><path d="M100.24 62.654H89.813V31.912h10.427V62.654zM91.972 60.496h6.111V34.069h-6.111V60.496z" fill="#4b91f1" data-fill-palette-color="accent"></path><path d="M87.028 25.369H35.59V82.98h15.431V71.664h9.26V82.98h3.086V71.664h8.23V82.98h15.431V25.369zM57.194 62.405H41.763v-7.202h15.431V62.405zM57.194 51.088H41.763v-7.201h15.431V51.088zM57.194 38.743H41.763v-7.201h15.431V38.743zM80.856 62.405H65.425v-7.202h15.432V62.405zM80.856 51.088H65.425v-7.201h15.432V51.088zM80.856 38.743H65.425v-7.201h15.432V38.743z" fill="#4b91f1" data-fill-palette-color="accent"></path><path d="M26.194 83.241c0 0 2.674-11.427-1.626-18.217-4.3-6.791-8.034-7.814-8.996-8.151-2.198-0.768-8.874 5.639-8.316 11.094-2.77-3.756-3.514-11.706 2.729-14.668-1.922-1.134-6.963 1.151-9.745 3.578 0-4.864 5.26-9.927 10.871-8.976 0.873-1.204 1.244-8.532 12.312-8.806-4.337 2.223-7.23 7.445-6.896 9.483 0.418-0.53 8.829-6.921 16.289 3.281-4.765-1.664-10.517-1.664-13.229 2.528 16.068 7.468 11.51 28.846 11.03 28.851C29.868 83.241 26.194 83.241 26.194 83.241z" fill="#4b91f1" data-fill-palette-color="accent"></path></svg></g></svg></g><g></g></svg></g></svg></g></svg></g><defs></defs></svg><rect width="395.52" height="137.60123102766642" fill="none" stroke="none" visibility="hidden"></rect></g></svg></g></svg>